<svg width="28" height="27" viewBox="0 0 28 27" fill="none" xmlns="http://www.w3.org/2000/svg">
    <path d="M14 19.6666L14 20.6" stroke="#fa1b1b" stroke-width="1.5" stroke-linecap="round" stroke-linejoin="round" />
    <path d="M14 9.40002L14 16.4" stroke="#fa1b1b" stroke-width="1.5" stroke-linecap="round" stroke-linejoin="round" />
    <path
        d="M12.6242 1.82177L11.9638 1.4662L12.6242 1.82177ZM24.6516 24.5167L3.34844 24.5167L3.34844 26.0167L24.6516 26.0167L24.6516 24.5167ZM14.7155 2.17735L25.7522 22.674L27.0729 21.9629L16.0362 1.4662L14.7155 2.17735ZM11.9638 1.4662L0.92714 21.9629L2.24785 22.674L13.2845 2.17735L11.9638 1.4662ZM14 0.25C13.1492 0.249999 12.3672 0.717122 11.9638 1.4662L13.2845 2.17735C13.4263 1.91414 13.7011 1.75 14 1.75L14 0.25ZM16.0362 1.4662C15.6328 0.717123 14.8508 0.25 14 0.25L14 1.75C14.2989 1.75 14.5737 1.91414 14.7155 2.17735L16.0362 1.4662ZM3.34844 24.5167C2.40259 24.5167 1.79942 23.5068 2.24785 22.674L0.92714 21.9629C-0.059392 23.795 1.26758 26.0167 3.34844 26.0167L3.34844 24.5167ZM24.6516 26.0167C26.7324 26.0167 28.0594 23.795 27.0729 21.9629L25.7522 22.674C26.2006 23.5068 25.5974 24.5167 24.6516 24.5167L24.6516 26.0167Z"
        fill="#fa1b1b" />
</svg>
