<svg width="90" height="74" viewBox="0 0 90 74" fill="none" xmlns="http://www.w3.org/2000/svg">
<path d="M8.219 18.7904C16.955 11.2884 23.856 5.35737 42.578 15.9364C51.572 21.0174 58.827 22.9354 64.867 22.9344C75.442 22.9344 82.293 17.0514 88.219 11.9594C90.332 10.1454 90.604 6.92437 88.826 4.76537C87.048 2.60637 83.894 2.32737 81.781 4.14437C73.046 11.6494 66.146 17.5784 47.418 6.99737C22.679 -6.97763 11.092 2.97737 1.781 10.9744C-0.331003 12.7894 -0.604003 16.0104 1.174 18.1694C2.951 20.3274 6.105 20.6064 8.219 18.7904ZM81.781 29.6784C73.046 37.1814 66.146 43.1114 47.418 32.5314C22.679 18.5554 11.092 28.5104 1.781 36.5084C-0.331003 38.3244 -0.604003 41.5454 1.174 43.7014C2.951 45.8604 6.106 46.1394 8.219 44.3234C16.955 36.8204 23.856 30.8904 42.578 41.4684C51.572 46.5494 58.827 48.4684 64.867 48.4684C75.442 48.4684 82.293 42.5844 88.219 37.4934C90.332 35.6774 90.604 32.4564 88.826 30.2994C87.049 28.1384 83.895 27.8614 81.781 29.6784ZM81.781 55.2094C73.046 62.7134 66.146 68.6424 47.418 58.0634C22.679 44.0874 11.092 54.0424 1.781 62.0404C-0.331003 63.8554 -0.604003 67.0774 1.174 69.2364C2.951 71.3924 6.106 71.6724 8.219 69.8564C16.955 62.3514 23.855 56.4244 42.578 67.0004C51.572 72.0834 58.827 74.0004 64.867 74.0004C75.442 74.0004 82.293 68.1164 88.219 63.0264C90.332 61.2114 90.604 57.9884 88.826 55.8304C87.048 53.6724 83.895 53.3954 81.781 55.2094Z" fill="#00CDDF"/>
</svg>
