<svg width="115" height="86" viewBox="0 0 115 86" fill="none" xmlns="http://www.w3.org/2000/svg">
<path d="M76.6516 17.0362C76.6516 7.66073 68.9913 0 59.6154 0C50.2401 0 42.5794 7.66073 42.5794 17.0362H51.0863C51.0863 12.3596 54.9167 8.52924 59.5933 8.52924C64.2699 8.52924 68.1005 12.3596 68.1005 17.0362C68.1005 21.7128 64.2699 25.5432 59.5933 25.5432H8.50696V34.0502H59.6154C68.9913 34.0947 76.6516 26.4117 76.6516 17.0362Z" fill="#A5B9D4"/>
<path d="M97.9417 17.0361C88.5658 17.0361 80.9055 24.6969 80.9055 34.0723H89.4345C89.4345 29.3957 93.2651 25.5654 97.9417 25.5654C102.618 25.5654 106.448 29.3957 106.448 34.0723C106.448 38.749 102.64 42.6016 97.9417 42.6016H0V51.1086H97.9638C107.339 51.1086 115 43.4478 115 34.0723C115 24.6969 107.317 17.0361 97.9417 17.0361Z" fill="#A5B9D4"/>
<path d="M85.1811 59.6379H25.5432V68.1449H85.1811C87.7421 68.1449 89.4345 69.8374 89.4345 72.3984C89.4345 74.9594 87.7421 76.6521 85.1811 76.6521C82.6201 76.6521 80.9276 74.9594 80.9276 72.3984H72.4204C72.4204 79.2131 77.9655 85.1811 85.2031 85.1811C92.4407 85.1811 97.9858 79.636 97.9858 72.3984C97.9858 65.1608 92.4187 59.6379 85.1811 59.6379Z" fill="#A5B9D4"/>
</svg>
